Coordinates
version=1
nRows=17
nColumns=24
inDegrees=yes

Units are S.I. units (second, meters, Newtons, ...)
Angles are in degrees.

endheader
time	pelvis_tilt	pelvis_list	pelvis_rotation	pelvis_tx	pelvis_ty	pelvis_tz	hip_flexion_r	hip_adduction_r	hip_rotation_r	knee_angle_r	ankle_angle_r	subtalar_angle_r	mtp_angle_r	hip_flexion_l	hip_adduction_l	hip_rotation_l	knee_angle_l	ankle_angle_l	subtalar_angle_l	mtp_angle_l	lumbar_extension	lumbar_bending	lumbar_rotation
      4.66000000	    -19.50281696	     10.70939749	     -4.64820537	     -0.69315570	     -0.04167294	     -0.23961246	     19.14320437	    -10.19463127	      4.01988092	    -58.23301028	    -43.43206835	     -6.25536614	     21.50438440	     43.02524470	     15.10455864	      6.31931947	    -25.48636326	     14.73979294	      8.36853963	    -71.45827742	     17.50664368	     -9.18385646	      9.36513056
      4.66500000	    -19.47476711	     10.75156596	     -4.52944225	     -0.68578826	     -0.04042582	     -0.24002782	     20.34016985	     -9.95262242	      4.40370728	    -59.77634215	    -41.86193575	     -8.27696438	     20.05938155	     42.21857761	     15.24398989	      6.20445386	    -25.12537051	     15.40345892	      8.91164337	    -71.66394376	     17.46114122	     -9.21297957	      9.11046291
      4.67000000	    -19.43021610	     10.77123138	     -4.42762378	     -0.67844716	     -0.03908754	     -0.24040262	     21.50638409	     -9.66090259	      4.80629075	    -61.21512386	    -40.18755552	    -10.17416711	     18.41309772	     41.35590576	     15.35519729	      6.13851672	    -24.69853122	     16.02025762	      9.41933899	    -71.86974316	     17.39483519	     -9.21811997	      8.86471207
      4.67500000	    -19.33512325	     10.81523611	     -4.41396600	     -0.67111092	     -0.03758530	     -0.24075682	     22.60827550	     -9.35617406	      5.34095292	    -62.45771314	    -38.78428553	    -12.09884929	     17.81011701	     40.38742513	     15.46494548	      6.13513417	    -24.15259485	     16.47998442	      9.72181462	    -71.90059164	     17.29406571	     -9.21254847	      8.75479445
      4.68000000	    -19.30499513	     10.71219149	     -4.23835416	     -0.66380630	     -0.03618610	     -0.24110923	     23.73405264	     -8.92434471	      5.62031795	    -63.74962602	    -36.76608138	    -13.51938231	     14.64508605	     39.51051011	     15.48869700	      6.13052548	    -23.72625322	     17.10003411	     10.34731538	    -72.18147477	     17.22332017	     -9.13040346	      8.36847578
      4.68500000	    -19.17019457	     10.67553693	     -4.17537922	     -0.65646142	     -0.03455642	     -0.24142872	     24.74415294	     -8.53922962	      6.03423571	    -64.84099817	    -35.09551087	    -14.97802982	     12.52238839	     38.44681190	     15.55110201	      6.22434869	    -23.12455969	     17.53971093	     10.67706711	    -72.37078735	     17.07199722	     -9.07787785	      8.15304967
      4.69000000	    -19.06897611	     10.58789706	     -4.11761287	     -0.64914839	     -0.03291652	     -0.24170363	     25.76669233	     -8.07940095	      6.45147224	    -65.81107230	    -33.53148806	    -16.28586554	     10.46057616	     37.40080044	     15.54842821	      6.34313581	    -22.50212054	     17.95318928	     11.03920801	    -72.48880155	     16.95616473	     -8.97374536	      7.93570884
      4.69500000	    -18.91605430	     10.48729086	     -4.03669652	     -0.64181685	     -0.03119079	     -0.24204657	     26.70072477	     -7.64409656	      6.79714506	    -66.67717188	    -31.90931940	    -17.38771976	      8.18679918	     36.26754303	     15.56752447	      6.53306686	    -21.82475828	     18.26972341	     11.26993583	    -72.59951116	     16.78273030	     -8.86375252	      7.67881752
      4.70000000	    -18.81308146	     10.41576573	     -4.04246592	     -0.63455974	     -0.02951142	     -0.24234244	     27.69246199	     -7.20012640	      7.27906839	    -67.36422865	    -30.80003361	    -18.60758956	      7.75072081	     35.19123872	     15.55805389	      6.64449291	    -21.10792117	     18.49013435	     11.39924849	    -72.59828258	     16.67709991	     -8.74322145	      7.54991941
      4.70500000	    -18.64221745	     10.19695793	     -3.86543802	     -0.62731642	     -0.02777289	     -0.24275714	     28.55288215	     -6.72073644	      7.38030291	    -68.10496260	    -28.78534899	    -19.13591983	      3.93737174	     34.01424778	     15.52220044	      7.04387833	    -20.43259790	     18.77089387	     11.58609441	    -72.72525811	     16.44671506	     -8.55620211	      7.17247675
      4.71000000	    -18.45765416	     10.00162140	     -3.80345830	     -0.62005804	     -0.02594169	     -0.24303010	     29.37617251	     -6.21659781	      7.64293182	    -68.60208290	    -27.47147132	    -19.92861274	      2.40420708	     32.78486579	     15.43458648	      7.37547556	    -19.64854291	     18.95528085	     11.69526065	    -72.75349392	     16.23223730	     -8.35915414	      6.90969546
      4.71500000	    -18.31265839	      9.83000781	     -3.76222306	     -0.61277925	     -0.02414184	     -0.24330735	     30.22457120	     -5.75172831	      7.92143666	    -68.97158760	    -26.25754953	    -20.61576835	      1.61380206	     31.56705687	     15.35519310	      7.72810136	    -18.78026849	     19.00365721	     11.65671393	    -72.76909837	     16.08181132	     -8.17055381	      6.72139529
      4.72000000	    -18.16678145	      9.52609410	     -3.63276601	     -0.60561422	     -0.02234021	     -0.24367089	     31.01040354	     -5.20821522	      8.06755336	    -69.22260524	    -24.97670688	    -21.02286035	      0.94313583	     30.35364670	     15.19102086	      8.23945130	    -17.96514635	     19.08047664	     11.63577922	    -72.76681004	     15.88380645	     -7.87921042	      6.31572579
      4.72500000	    -18.04132791	      9.24824255	     -3.54715250	     -0.59847124	     -0.02062232	     -0.24396400	     31.82211993	     -4.69987896	      8.18827591	    -69.39198382	    -23.62718673	    -21.39526286	      0.23621364	     29.15454285	     15.02556623	      8.78016918	    -17.10956546	     19.09650069	     11.46368140	    -72.74947288	     15.72479371	     -7.60666926	      6.09112475
      4.73000000	    -17.95553186	      8.88227626	     -3.42657495	     -0.59139382	     -0.01891818	     -0.24422433	     32.62507644	     -4.11952081	      8.25970773	    -69.41260512	    -22.37885929	    -21.62577686	      0.07781396	     28.01726100	     14.75904637	      9.25014674	    -16.29124536	     19.10994094	     11.40708339	    -72.72897468	     15.59086899	     -7.25743089	      5.70746822
      4.73500000	    -17.85350478	      8.50343386	     -3.30147694	     -0.58434046	     -0.01723573	     -0.24450769	     33.37881827	     -3.56520428	      8.28216233	    -69.31531935	    -21.08234593	    -21.74872545	      0.10311329	     26.84276329	     14.48698831	      9.86479691	    -15.43090599	     19.06245603	     11.17975099	    -72.70489555	     15.43962626	     -6.90222494	      5.36835172
      4.74000000	    -17.77200663	      8.08596603	     -3.15420748	     -0.57734552	     -0.01560211	     -0.24477575	     34.11979978	     -3.00060080	      8.25300017	    -69.09725275	    -19.79838738	    -21.76002956	      0.34410033	     25.69598600	     14.16868403	     10.52060908	    -14.57265927	     18.98431314	     10.92517821	    -72.66858063	     15.30211262	     -6.51958725	      5.00646311
